<svg width="45" height="45" viewBox="0 0 45 45" fill="none" xmlns="http://www.w3.org/2000/svg">
<path d="M37.5557 12.687C37.8193 12.9507 37.9688 13.3066 37.9688 13.6802V40.7812C37.9688 41.5591 37.3403 42.1875 36.5625 42.1875H8.4375C7.65967 42.1875 7.03125 41.5591 7.03125 40.7812V4.21875C7.03125 3.44092 7.65967 2.8125 8.4375 2.8125H27.1011C27.4746 2.8125 27.835 2.96191 28.0986 3.22559L37.5557 12.687ZM34.7256 14.3262L26.4551 6.05566V14.3262H34.7256ZM27.827 28.0046C27.16 27.9826 26.4507 28.034 25.6452 28.1347C24.5773 27.4759 23.8583 26.5711 23.3477 25.2417L23.3947 25.0493L23.4492 24.8216C23.6382 24.0249 23.7397 23.4435 23.77 22.8573C23.7929 22.4147 23.7683 22.0065 23.6896 21.6281C23.5446 20.8112 22.9667 20.3335 22.2385 20.3041C21.5596 20.2764 20.9355 20.6556 20.776 21.2432C20.5163 22.1933 20.6684 23.4435 21.219 25.5757C20.5176 27.2479 19.5908 29.2083 18.969 30.3016C18.1389 30.7296 17.4924 31.119 16.9493 31.5505C16.233 32.1205 15.7856 32.7063 15.6625 33.3215C15.6028 33.6067 15.6929 33.9794 15.8981 34.2848C16.131 34.6311 16.4817 34.8561 16.9022 34.8886C17.9635 34.9708 19.2678 33.8766 20.7079 31.4055C20.8525 31.3572 21.0054 31.3062 21.1922 31.2429L21.7151 31.0663C22.046 30.9546 22.286 30.8747 22.5233 30.7978C23.5516 30.4629 24.3294 30.2515 25.037 30.1311C26.2666 30.7894 27.6877 31.2209 28.6449 31.2209C29.435 31.2209 29.9689 30.8114 30.1619 30.1667C30.3311 29.6007 30.197 28.9441 29.8332 28.5812C29.457 28.2116 28.7653 28.0349 27.827 28.0046ZM16.9291 33.648V33.6322L16.9348 33.6173C16.9991 33.4511 17.0816 33.2925 17.1809 33.1444C17.3689 32.8553 17.6278 32.5512 17.9486 32.2273C18.1208 32.0537 18.3001 31.8845 18.5106 31.6947C18.5577 31.6525 18.8583 31.3849 18.9145 31.3321L19.4054 30.8751L19.0485 31.4433C18.5071 32.3064 18.0176 32.9278 17.5983 33.333C17.4441 33.4824 17.3083 33.5922 17.1984 33.663C17.1622 33.6872 17.1238 33.7081 17.0837 33.7254C17.0657 33.7329 17.0499 33.7373 17.0341 33.7386C17.0174 33.7407 17.0004 33.7384 16.9849 33.732C16.9683 33.7251 16.9542 33.7134 16.9443 33.6985C16.9343 33.6835 16.929 33.666 16.9291 33.648ZM22.4635 24.0557L22.3642 24.2314L22.3027 24.039C22.1665 23.607 22.0663 22.9562 22.0386 22.369C22.0069 21.7011 22.0601 21.3003 22.271 21.3003C22.5672 21.3003 22.703 21.7749 22.7136 22.489C22.7232 23.1166 22.6244 23.7696 22.4631 24.0557H22.4635ZM22.2082 26.6247L22.2754 26.4467L22.3673 26.6137C22.881 27.5471 23.5477 28.3258 24.2807 28.8686L24.4389 28.9855L24.2459 29.025C23.5283 29.1735 22.8599 29.3968 21.9459 29.7655C22.0412 29.7268 20.9958 30.1548 20.7312 30.2563L20.5005 30.3447L20.6235 30.1302C21.1663 29.1854 21.6677 28.0507 22.2078 26.6247H22.2082ZM29.1349 29.976C28.7895 30.1122 28.0459 29.9905 26.7368 29.4315L26.4045 29.29L26.7649 29.2636C27.7888 29.1876 28.5139 29.2438 28.9367 29.3985C29.1168 29.4645 29.2368 29.5475 29.29 29.6424C29.318 29.6874 29.3274 29.7414 29.3162 29.7932C29.3051 29.8449 29.2742 29.8903 29.2302 29.9197C29.2023 29.9443 29.1699 29.9634 29.1349 29.976Z" fill="#FF5561"/>
</svg>
