<svg width="45" height="45" viewBox="0 0 45 45" fill="none" xmlns="http://www.w3.org/2000/svg">
<path d="M2.16455 10.1437C3.91852 7.60455 6.15544 5.43572 8.7476 3.76105C11.3398 2.08638 14.2364 0.938669 17.2721 0.383452C20.3078 -0.171765 23.4231 -0.123618 26.4402 0.525144C29.4573 1.17391 32.3171 2.41058 34.8563 4.16455C37.3955 5.91852 39.5643 8.15545 41.239 10.7476C42.9136 13.3398 44.0613 16.2364 44.6165 19.2721C45.1718 22.3078 45.1236 25.4231 44.4749 28.4402C43.8261 31.4573 42.5894 34.3171 40.8354 36.8563L21.5 23.5L2.16455 10.1437Z" fill="#FF5561"/>
<path d="M42 23C42 27.1534 40.7684 31.2135 38.4609 34.667C36.1534 38.1204 32.8736 40.812 29.0364 42.4015C25.1991 43.9909 20.9767 44.4068 16.9031 43.5965C12.8295 42.7862 9.08766 40.7861 6.15076 37.8492C3.21385 34.9123 1.2138 31.1705 0.403509 27.0969C-0.406781 23.0233 0.00908955 18.8009 1.59853 14.9636C3.18797 11.1264 5.87959 7.84665 9.33302 5.53914C12.7865 3.23163 16.8466 2 21 2V23H42Z" fill="#315B7C"/>
</svg>
