<svg width="295" height="37" viewBox="0 0 295 37" fill="none" xmlns="http://www.w3.org/2000/svg">
<path d="M13.6818 16.7823V10.1172H17.6503V26.9565H13.6818V20.7612V20.2612H13.1818H4.99948H4.49948V20.7612V26.9565H0.5V10.1172H4.49948V16.7823V17.2823H4.99948H13.1818H13.6818V16.7823Z" fill="#003865" stroke="#003865"/>
<path d="M67.922 18.2283L63.781 24.1521H61.6884L57.5164 18.1701L56.6008 16.8572L56.6063 18.4578L56.6356 26.9565H52.8552V10.1172H55.6536L62.3201 19.437L62.7268 20.0056L63.1335 19.437L69.7999 10.1172H72.5984V26.9565H68.8318V18.5148V16.9269L67.922 18.2283Z" fill="#003865" stroke="#003865"/>
<path d="M81.3879 12.9787H80.8879V13.4787V16.7382V17.2382H81.3879H89.2721V20.0116H81.3879H80.8879V20.5116V23.6096V24.1096H81.3879H90.4677V26.9712H77.199V10.1172H90.4521V12.9787H81.3879Z" fill="#003865" stroke="#003865"/>
<path d="M48.8884 20.9802V20.9813C48.8884 23.2655 48.2014 25.4086 46.9947 27.2499H41.8663C43.4228 25.7038 44.3921 23.5992 44.3921 21.2749C44.3921 16.4852 40.343 12.6408 35.3836 12.6408C30.4243 12.6408 26.3752 16.4852 26.3752 21.2749C26.3752 23.5992 27.3445 25.7038 28.901 27.2499H23.7726C22.5659 25.4086 21.8789 23.2655 21.8789 20.9813C21.8789 14.2534 27.8975 8.72217 35.3992 8.72217C42.9004 8.72217 48.9032 14.2527 48.8884 20.9802ZM40.5073 27.7499H41.3194L41.1341 27.2499C40.9337 27.4259 40.7245 27.5928 40.5073 27.7499Z" fill="#003865" stroke="#003865"/>
<path d="M35.0872 25.7661C33.4627 25.7661 32.0149 24.7401 31.285 23.1982H38.8893C38.1594 24.7401 36.7116 25.7661 35.0872 25.7661Z" fill="#003865" stroke="#003865"/>
<path d="M126.648 18.1918V18.6918H127.148H130.735C131.744 18.6918 132.683 18.4382 133.386 17.9537C134.098 17.463 134.573 16.7255 134.573 15.8132C134.573 14.9069 134.1 14.1793 133.388 13.6977C132.687 13.2232 131.748 12.9787 130.735 12.9787H127.148H126.648V13.4787V18.1918ZM126.632 22.1267V26.7362H122.773V10.1172H130.797C133.151 10.1172 135.062 10.6941 136.37 11.6826C137.665 12.6608 138.401 14.0627 138.401 15.8132C138.401 17.9152 137.294 19.6179 135.363 20.6264L134.843 20.8979L135.193 21.3684L139.194 26.7362H134.809L131.248 21.8329L131.098 21.6267H130.843H130.812H127.132H126.632V22.1267Z" fill="#003865" stroke="#003865"/>
<path d="M146.891 16.6345V17.1345H147.391H155.167V19.8639H147.391H146.891V20.3639V23.4178V23.9178H147.391H156.347V26.7206H143.264V10.1016H156.347V12.9043H147.391H146.891V13.4043V13.419V16.6345Z" fill="#003865" stroke="#003865"/>
<path d="M164.13 13.0512H163.63V13.5512V23.2857V23.7857H164.13H167.048C170.38 23.8009 173.03 21.4958 173.03 18.367C173.03 15.3166 170.369 13.0512 167.049 13.0512H164.13ZM176.828 18.367C176.828 20.8341 175.821 22.9089 174.111 24.3743C172.395 25.8444 169.947 26.7206 167.049 26.7206H159.91V10.1016H167.049C172.847 10.116 176.828 13.5639 176.828 18.367Z" fill="#003865" stroke="#003865"/>
<path d="M184.806 10.1172V26.7362H180.682V10.1172H184.806Z" fill="#003865" stroke="#003865"/>
<path d="M197.849 13.0227H197.349V13.5227V26.7216H193.722V13.5227V13.0227H193.222H188.35V10.1172H202.706V13.0227H197.849Z" fill="#003865" stroke="#003865"/>
<path d="M110.44 23.7866C112.582 23.7866 114.223 22.9021 115.082 21.3053H119.055C117.938 24.5752 114.768 26.7362 110.471 26.7362C105.017 26.7362 101.019 23.2013 101.019 18.4267C101.019 13.6522 105.017 10.1172 110.471 10.1172C114.768 10.1172 117.938 12.2782 119.055 15.5481H115.078C114.208 13.9678 112.573 13.0668 110.44 13.0668C108.791 13.0668 107.363 13.6156 106.344 14.5756C105.322 15.5372 104.739 16.8861 104.739 18.4267C104.739 19.9673 105.322 21.3162 106.344 22.2778C107.363 23.2378 108.791 23.7866 110.44 23.7866Z" fill="#003865" stroke="#003865"/>
<path d="M218.966 19.5858H218.466V20.0858V23.639V24.139H218.966H223.267C224.319 24.139 225.151 23.9267 225.736 23.5157C226.339 23.0912 226.639 22.4794 226.639 21.8037C226.639 21.0785 226.293 20.4924 225.68 20.1124C225.096 19.7498 224.291 19.5858 223.344 19.5858H218.966ZM218.95 12.6997H218.45V13.1997V16.885V17.385H218.95H222.568C223.546 17.385 224.364 17.1604 224.951 16.7277C225.551 16.2853 225.878 15.6457 225.878 14.9176C225.878 14.1864 225.548 13.5955 224.928 13.2143C224.342 12.8543 223.532 12.6997 222.568 12.6997H218.95ZM223.888 26.7803H214.653V10.1172H223.313C225.353 10.1172 226.904 10.5598 227.93 11.2939C228.938 12.0148 229.474 13.0379 229.474 14.3156C229.474 15.766 228.586 17.2381 227.146 17.7174L225.354 18.3135L227.206 18.6822C229.313 19.1016 230.328 20.686 230.328 22.3763C230.328 23.6787 229.761 24.7559 228.696 25.5239C227.615 26.3029 225.993 26.7803 223.888 26.7803Z" fill="#003865" stroke="#003865"/>
<path d="M244.852 21.0704H245.601L245.314 20.3786L242.845 14.4322L242.383 13.3199L241.921 14.4322L239.453 20.3786L239.166 21.0704H239.915H244.852ZM246.835 24.0478L246.706 23.741H246.374H238.377H238.043L237.915 24.0498L236.786 26.7803H232.897L240.469 10.1172H244.328L251.871 26.7803H247.979L246.835 24.0478Z" fill="#003865" stroke="#003865"/>
<path d="M267.551 19.5573V10.1172H271.395V26.7803H268.366L259.135 17.2421L258.276 16.3542V17.5898V26.7803H254.416V10.1172H257.412L266.688 19.9013L267.551 20.8113V19.5573Z" fill="#003865" stroke="#003865"/>
<path d="M283.963 20.3747L283.607 19.932L283.213 20.3407L280.31 23.3506L280.169 23.4959V23.6977V26.7803H276.248V10.1172H280.169V17.7219V18.9544L281.028 18.0703L288.753 10.1172H293.179L286.475 17.0062L286.163 17.3269L286.447 17.6726L293.941 26.7803H289.107L283.963 20.3747Z" fill="#003865" stroke="#003865"/>
</svg>
