<svg width="25" height="25" viewBox="0 0 25 25" fill="none" xmlns="http://www.w3.org/2000/svg">
<path fill-rule="evenodd" clip-rule="evenodd" d="M13.8672 11.1606C13.8672 12.4691 13.8671 12.9872 13.8671 13.8396C13.8671 14.5792 13.255 15.1785 12.5 15.1785C11.745 15.1785 11.1329 14.5792 11.1329 13.8396C11.1328 12.9872 11.1328 12.4691 11.1328 11.1606C11.1328 9.85219 11.1328 10.3386 11.1329 9.48611C11.1329 8.74649 11.745 8.14724 12.5 8.14724C13.255 8.14724 13.8671 8.74649 13.8671 9.48611C13.8671 10.3386 13.8672 9.85219 13.8672 11.1606ZM12.5 19.5313C11.7449 19.5313 11.1328 18.9317 11.1328 18.192C11.1328 17.4524 11.7449 16.8528 12.5 16.8528C13.2551 16.8528 13.8672 17.4524 13.8672 18.192C13.8672 18.9317 13.2551 19.5313 12.5 19.5313ZM23.1937 18.9156L14.0499 4.1131C13.7248 3.49372 13.1458 3.125 12.5 3.125C11.8542 3.125 11.2752 3.49372 10.9501 4.1131L1.80635 18.9156C1.48122 19.5301 1.48122 20.2675 1.80635 20.8869C2.13144 21.5063 2.71045 21.875 3.35627 21.875H21.6438C22.2895 21.875 22.8685 21.5063 23.1937 20.8869C23.5188 20.2724 23.5188 19.535 23.1937 18.9156Z" fill="#FF5561"/>
</svg>
